<?xml version="1.0" encoding="utf-8"?>
<svg xmlns="http://www.w3.org/2000/svg" viewBox="0 0 378 594">
  <!-- Background -->
  <rect width="378" height="594" fill="#FFFFFF"/>
  <!-- Geometric overlay -->
  <defs>
    <pattern id="geoP" width="25" height="25" patternUnits="userSpaceOnUse">
      <rect width="25" height="25" fill="#FF5A5F" opacity="0.12"/>
      <circle cx="12.5" cy="12.5" r="6" fill="#FF5A5F" opacity="0.2"/>
    </pattern>
  </defs>
  <rect x="15" y="0" width="363" height="594" fill="url(#geoP)"/>
  <!-- Binding -->
  <rect x="0" y="0" width="15" height="594" fill="#B33F43"/>
  <!-- Logo with shadow -->
  <g transform="translate(60, 145)">
    <rect x="-6" y="6" width="120" height="75" fill="black" opacity="0.12" rx="6"/>
    <g transform="scale(0.8)"><path fill="#FFFFFF" d="M50,20 C35,20 25,35 25,50 C25,65 35,80 50,80 C65,80 75,65 75,50 C75,35 65,20 50,20 M40,35 L60,35 M35,50 L65,50 M40,65 L60,65"/></g>
  </g>
  <!-- Brand name -->
  <text x="245.70000000000002" y="280" font-family="Georgia, serif" font-size="30" font-weight="bold" fill="#FF5A5F" text-anchor="middle">Airbnb</text>
  <text x="245.70000000000002" y="320" font-family="Arial, sans-serif" font-size="11" fill="#000000" text-anchor="middle" letter-spacing="4">COLLECTION</text>
</svg>